<?xml version="1.0" encoding="UTF-8" standalone="no"?>
<!-- Created with Inkscape (http://www.inkscape.org/) -->

<svg
   xmlns:dc="http://purl.org/dc/elements/1.1/"
   xmlns:cc="http://creativecommons.org/ns#"
   xmlns:rdf="http://www.w3.org/1999/02/22-rdf-syntax-ns#"
   xmlns:svg="http://www.w3.org/2000/svg"
   xmlns="http://www.w3.org/2000/svg"
   xmlns:sodipodi="http://sodipodi.sourceforge.net/DTD/sodipodi-0.dtd"
   xmlns:inkscape="http://www.inkscape.org/namespaces/inkscape"
   width="100"
   height="100"
   viewBox="0 0 26.458333 26.458334"
   version="1.1"
   id="svg8"
   inkscape:version="0.92.2 (5c3e80d, 2017-08-06)"
   sodipodi:docname="crossroad-logo.svg">
  <defs
     id="defs2" />
  <sodipodi:namedview
     id="base"
     pagecolor="#ffffff"
     bordercolor="#666666"
     borderopacity="1.0"
     inkscape:pageopacity="0.0"
     inkscape:pageshadow="2"
     inkscape:zoom="1"
     inkscape:cx="-51.315817"
     inkscape:cy="60.501279"
     inkscape:document-units="mm"
     inkscape:current-layer="layer1"
     showgrid="false"
     inkscape:window-width="1366"
     inkscape:window-height="705"
     inkscape:window-x="-8"
     inkscape:window-y="-8"
     inkscape:window-maximized="1"
     units="px" />
  <metadata
     id="metadata5">
    <rdf:RDF>
      <cc:Work
         rdf:about="">
        <dc:format>image/svg+xml</dc:format>
        <dc:type
           rdf:resource="http://purl.org/dc/dcmitype/StillImage" />
        <dc:title></dc:title>
      </cc:Work>
    </rdf:RDF>
  </metadata>
  <g
     inkscape:label="Layer 1"
     inkscape:groupmode="layer"
     id="layer1"
     transform="translate(0,-270.54165)">
    <g
       id="g838"
       inkscape:export-xdpi="96"
       inkscape:export-ydpi="96"
       transform="matrix(0.0386822,0,0,0.0386822,-0.3119343,285.78163)">
      <path
         sodipodi:nodetypes="ccccsccccccsscccccsssccscsccsscscsscccssccsccssssccc"
         style="fill:#a0ced4;fill-opacity:1;stroke-width:1.72487772"
         d="m 315.22574,62.010588 c -20.17895,-4.427513 -38.90043,-12.462199 -52.35106,-25.631816 27.36558,7.881859 51.80119,11.432068 70.46229,11.547312 21.85423,0.109523 28.13263,-0.484053 40.41935,-3.821324 31.50965,-8.558338 56.47375,-23.91678 81.60173,-50.2031181 27.08625,-28.3349059 39.99392,-54.5732299 44.49463,-90.4475689 3.33864,-26.611923 0.56834,-48.624813 -8.74311,-69.472263 -14.62797,-32.75078 -39.65396,-54.71869 -75.43031,-66.21307 -34.9343,-11.22376 -63.30593,-4.15987 -90.23019,22.4653 -12.93617,12.79253 -19.41382,24.64839 -23.10435,42.28706 -2.20488,10.53831 -2.20674,13.38957 -0.0147,22.83998 5.56245,23.98489 19.26998,41.08988 41.32012,51.561448 37.34161,17.733476 73.78478,-1.586469 80.39297,-42.619438 2.93062,-18.19743 -1.53782,-32.46592 -13.57214,-43.33823 -10.3065,-9.31126 -20.0779,-12.35795 -36.57245,-11.4031 -17.18148,1.63396 -24.82211,7.94088 -34.56798,16.89475 5.96601,-20.53941 30.19822,-31.6803 49.20328,-31.88448 17.91825,-0.0342 28.87802,5.07263 43.41866,20.2285 19.72978,20.56469 25.55297,51.38465 15.23454,80.63025 -9.57255,27.131478 -36.13269,48.794334 -69.17733,56.422118 -24.47833,5.650407 -43.14143,3.248431 -68.95354,-8.874487 -28.66832,-13.46438 -49.89802,-38.275287 -61.32943,-71.675091 -4.81549,-14.06979 -5.66884,-19.10765 -6.03633,-35.63603 -0.85046,-38.25578 9.05418,-65.9268 33.85516,-94.58211 31.52701,-36.4266 68.24592,-50.80351 115.09291,-52.21462 65.6021,6.83403 150.14834,74.65687 163.68718,136.6117 1.52962,6.99966 9.068,21.0895 9.87236,21.99072 2.98201,3.34123 4.40652,-41.7307 0.89274,-58.97299 -12.7648,-62.63817 -48.90855,-115.4959 -103.17888,-142.61485 -14.52113,-7.25624 -44.80019,-17.39484 -61.60145,-20.79919 -20.44857,-4.14339 -62.08501,-2.09869 -85.60726,3.81443 -56.04275,14.08817 -106.76932,43.16183 -126.42197,73.50723 -6.77341,10.45874 -12.55183,46.43782 -15.41222,65.45656 -2.86039,19.01874 -3.3246,26.19056 -1.97968,43.83764 5.93588,77.88626 54.77096,152.99461 116.80011,178.049303 48.33043,19.5215364 108.57372,6.2877909 162.50883,-35.698612 3.70334,-2.882899 6.82701,-6.879492 6.28918,-4.740396 -0.53782,2.139095 -4.73716,10.413879 -9.21256,16.367527 C 434.42711,-17.229116 405.17441,3.8248608 380.14387,13.99568 344.19526,28.602911 300.17804,28.995189 261.21721,15.05551 216.7219,-0.86428591 169.67489,-43.65675 148.63549,-75.653243 131.78747,-113.97855 124.79134,-187.0229 124.79134,-187.0229 c 0,0 44.5345,-119.13102 108.50348,-161.22768 29.4453,-19.37735 51.34529,-23.48207 87.96878,-31.81799 18.9839,-4.32092 63.82944,-5.17171 87.96878,-0.78063 44.64982,8.1223 72.53283,22.17058 101.80123,50.1757 15.29111,14.63119 28.31095,26.12737 37.75701,48.57189 15.82528,37.60202 19.97678,62.1534 24.73497,92.89463 8.73499,56.43429 -7.59864,107.314263 -43.43837,154.948237 -36.71883,48.802447 -69.1185,75.268638 -128.15484,89.324098 -22.61057,5.383102 -78.82487,8.109489 -78.82487,8.109489 z"
         id="path845"
         inkscape:connector-curvature="0" />
      <path
         sodipodi:nodetypes="ccccsscscccscscsscczzcsccsscscscscc"
         style="opacity:1;fill:#6ab3c6;fill-opacity:1;stroke-width:1.72487772"
         d="m 323.10751,63.174844 c 29.99259,-3.073473 58.34453,-8.887501 83.79368,-19.24092 28.67922,-11.939175 58.14324,-34.8635498 77.43693,-60.249599 11.98137,-15.764655 26.48155,-45.959793 32.01595,-66.669942 8.4317,-37.717873 5.82413,-78.391593 -6.0907,-111.188573 -16.42034,-45.19891 -48.46426,-81.42689 -91.86071,-103.24962 -8.30097,-4.1743 -24.91255,-12.49883 -27.7642,-13.70563 8.41925,-0.51963 29.49926,1.32065 42.37224,4.59088 19.84718,5.04195 26.70099,7.88653 37.95809,13.32609 25.79824,17.61633 76.31243,76.76985 83.88059,104.08054 1.92623,6.95099 4.43661,20.67622 5.57858,30.50053 1.14202,9.8243 2.65696,17.86241 3.36661,17.86241 4.4877,0 5.01326,-51.17568 0.73507,-71.58244 -16.39695,-78.21322 -62.99119,-129.82024 -139.06641,-154.02779 -8.92744,-2.84075 -20.88882,-6.17353 -26.58093,-7.40615 -14.45268,-3.12976 -50.1087,-2.7126 -69.85755,0.81732 -35.7942,6.3979 -81.48934,25.75566 -108.39618,45.91979 -15.35768,11.50912 -34.20684,30.92196 -36.68151,48.87917 -5.26957,13.12658 -8.43684,32.94697 -11.0781,46.03326 -6.31325,13.95594 -8.75591,14.61318 -14.59514,33.04762 -5.83923,18.43444 -10.10446,35.96389 -11.95552,57.45881 -1.85107,21.49493 1.05656,51.751633 2.31719,65.976157 -4.16725,-6.447619 -16.27527,-31.839127 -20.8187,-49.862037 -2.69884,-10.7058 -3.73202,-16.61501 -4.6132,-22.6207 0.0229,-12.8054 1.03547,-41.35156 3.06979,-52.11615 8.48896,-44.91966 35.91135,-88.24669 78.43285,-123.92291 55.66221,-46.70156 113.59994,-66.64051 178.65217,-61.48208 63.02972,4.99801 112.16392,28.56584 144.92878,69.51686 15.47828,19.34542 26.19124,38.80911 35.39444,70.51947 11.46412,39.50043 9.99021,46.39221 11.8078,67.33569 3.7783,43.53503 -20.56168,103.560313 -42.36616,140.79055 -10.23908,17.482796 -39.4793,52.739146 -39.4793,52.739146 0,0 -10.48717,9.249531 -25.9453,18.109111 -22.66186,12.988277 -46.83012,21.567279 -71.53116,26.515195 -34.57241,5.82101 -63.91395,4.14754 -73.05999,3.305942 z"
         id="path843"
         inkscape:connector-curvature="0" />
      <path
         sodipodi:nodetypes="ssccsccssssczzccsssscccs"
         style="opacity:1;fill:#4ba3bb;fill-opacity:1;stroke-width:1.72487772"
         d="m 516.93528,-22.253249 c 27.95753,-49.93049 35.89434,-137.634791 5.56248,-200.783771 -13.53555,-28.18014 -28.01686,-49.06513 -51.52897,-70.17545 16.44568,8.24705 21.66729,12.36366 29.22907,18.06425 16.18676,12.55807 31.99542,27.19003 45.16421,54.6945 10.86151,22.68546 14.37175,36.6909 18.48593,60.13673 3.14388,-15.56692 0.75849,-41.84936 -2.63359,-56.96332 -10.97853,-48.11549 -36.8946,-87.75185 -70.2293,-113.89323 -22.48773,-17.63509 -64.66814,-35.74294 -94.50088,-40.54987 -19.33899,-3.11608 -60.07073,-1.47122 -81.56183,3.92734 -30.21405,7.58974 -66.57788,24.37349 -89.05267,39.54604 -22.33388,15.07739 -34.23275,30.06659 -41.92267,50.08094 -7.22371,8.78422 -17.35379,17.93714 -29.21218,35.67397 -11.85838,17.73683 -15.94701,29.43702 -21.24062,45.26908 -5.29361,15.83206 -9.83588,32.26426 -10.29067,49.09006 -4.3004,-17.03986 -2.63289,-42.50063 3.89119,-65.6748 14.60534,-50.64299 43.22185,-98.83391 112.00115,-141.17618 57.0736,-35.13594 137.66169,-42.79677 203.77599,-21.66681 47.17682,15.07759 87.18154,51.14378 106.31959,86.36644 12.21821,22.48702 17.92298,34.84795 26.73288,85.08698 4.44957,25.37398 3.6954,67.85285 -0.84527,84.67832 -5.05815,26.153196 -17.21262,56.70116 -33.29225,80.762177 -12.51813,20.219365 -33.15667,41.6457855 -48.14291,55.004449 8.34203,-12.3760176 12.06591,-17.4499172 23.29132,-37.497845 z"
         id="path841"
         inkscape:connector-curvature="0" />
      <text
         id="text832"
         y="196.5692"
         x="2.1837618"
         style="font-style:normal;font-variant:normal;font-weight:600;font-stretch:normal;font-size:110.39217377px;line-height:1.25;font-family:Inter;-inkscape-font-specification:'Inter, Semi-Bold';font-variant-ligatures:normal;font-variant-caps:normal;font-variant-numeric:normal;font-feature-settings:normal;text-align:start;letter-spacing:0px;word-spacing:0px;writing-mode:lr-tb;text-anchor:start;fill:#1082a7;fill-opacity:1;stroke:none;stroke-width:2.78868699"
         xml:space="preserve"><tspan
           style="font-style:normal;font-variant:normal;font-weight:600;font-stretch:normal;font-size:110.39217377px;font-family:Inter;-inkscape-font-specification:'Inter, Semi-Bold';font-variant-ligatures:normal;font-variant-caps:normal;font-variant-numeric:normal;font-feature-settings:normal;text-align:start;writing-mode:lr-tb;text-anchor:start;fill:#1082a7;fill-opacity:1;stroke-width:2.78868699"
           y="196.5692"
           x="2.1837618"
           id="tspan830"
           sodipodi:role="line">CROSSROAD</tspan></text>
      <text
         id="text832-4"
         y="289.10239"
         x="170.27113"
         style="font-style:normal;font-variant:normal;font-weight:600;font-stretch:normal;font-size:82.79412842px;line-height:1.25;font-family:Inter;-inkscape-font-specification:'Inter, Semi-Bold';font-variant-ligatures:normal;font-variant-caps:normal;font-variant-numeric:normal;font-feature-settings:normal;text-align:start;letter-spacing:0px;word-spacing:0px;writing-mode:lr-tb;text-anchor:start;fill:#1082a7;fill-opacity:1;stroke:none;stroke-width:2.06491494"
         xml:space="preserve"><tspan
           style="font-style:normal;font-variant:normal;font-weight:600;font-stretch:normal;font-size:82.79412842px;font-family:Inter;-inkscape-font-specification:'Inter, Semi-Bold';font-variant-ligatures:normal;font-variant-caps:normal;font-variant-numeric:normal;font-feature-settings:normal;text-align:start;writing-mode:lr-tb;text-anchor:start;fill:#1082a7;fill-opacity:1;stroke-width:2.06491494"
           y="289.10239"
           x="170.27113"
           id="tspan830-3"
           sodipodi:role="line">CHURCH</tspan></text>
    </g>
  </g>
</svg>
